<?xml version="1.0" encoding="UTF-8" standalone="no"?>
<!-- Generator: Adobe Illustrator 19.2.1, SVG Export Plug-In . SVG Version: 6.00 Build 0)  -->

<svg
   version="1.1"
   id="layer"
   x="0px"
   y="0px"
   viewBox="0 0 599.90503 127.9"
   xml:space="preserve"
   sodipodi:docname="hewlett.svg"
   width="599.90503"
   height="127.9"
   inkscape:version="1.1.1 (3bf5ae0d25, 2021-09-20)"
   xmlns:inkscape="http://www.inkscape.org/namespaces/inkscape"
   xmlns:sodipodi="http://sodipodi.sourceforge.net/DTD/sodipodi-0.dtd"
   xmlns="http://www.w3.org/2000/svg"
   xmlns:svg="http://www.w3.org/2000/svg"><defs
   id="defs11" /><sodipodi:namedview
   id="namedview9"
   pagecolor="#ffffff"
   bordercolor="#666666"
   borderopacity="1.0"
   inkscape:pageshadow="2"
   inkscape:pageopacity="0.0"
   inkscape:pagecheckerboard="0"
   showgrid="false"
   inkscape:zoom="1.1027607"
   inkscape:cx="304.68985"
   inkscape:cy="68.011127"
   inkscape:window-width="1866"
   inkscape:window-height="989"
   inkscape:window-x="3894"
   inkscape:window-y="27"
   inkscape:window-maximized="1"
   inkscape:current-layer="layer" />
<style
   type="text/css"
   id="style2">
	.st0{fill:#243C4C;}
	.st1{fill:#7CAF41;}
</style>

<g
   id="g846"
   transform="translate(-20.8,-257.7)"><path
     class="st0"
     d="M 74.1,385.6 H 78 v -25 h 34 v -3.9 H 74.1 Z m -9.7,0 h 3.9 v -52.8 h 5.8 V 351 h 37.8 v -3.9 h -34 v -14.3 h 34 v -3.9 h -34 v -5.8 h 34 v -3.9 H 64.4 Z m 3.8,-62.4 H 74 v 5.8 h -5.8 z m 65,-14.8 2.6,-9.9 2.6,9.9 h 2.7 l 4.7,-16.6 h -3.2 l -2.8,10.7 -2.7,-10.7 h -2.3 l -2.8,10.7 -2.7,-10.7 h -3.2 l 4.7,16.6 z m 24.3,-16.6 h -3.1 v 16.6 h 3.1 z m 17.9,13.7 h -5.5 v -13.7 h -3.1 v 16.6 h 8.6 c 0,0 0,-2.9 0,-2.9 z m 16.7,0 h -5.5 v -13.7 h -3.1 v 16.6 h 8.6 c 0,0 0,-2.9 0,-2.9 z m 11.2,-13.7 h -3.1 v 16.6 h 3.1 z m 12.6,11.9 h 5.1 l 1.8,4.7 h 3.3 l -6.2,-16.3 -0.1,-0.3 h -2.6 l -6.4,16.6 h 3.3 z m 2.6,-7.3 1.5,4.4 h -3 z m 24.2,6.8 -4.5,-11.4 h -4.3 v 16.6 h 3.1 v -11.7 l 4.7,11.7 h 1.9 l 4.7,-11.8 v 11.8 h 3.1 v -16.6 h -4.3 z m 54.5,-1.7 h 5.7 v -3 h -5.7 v -3.9 h 5.7 v -2.9 h -8.8 v 16.6 h 3.1 z m 17.9,-9.7 H 312 v 16.6 h 8.6 v -3 h -5.5 z m 30,8.3 c 0,-4.8 -3.8,-8.6 -8.6,-8.6 -4.8,0 -8.6,3.9 -8.6,8.6 0,4.7 3.9,8.6 8.6,8.6 4.7,0 8.6,-3.9 8.6,-8.6 z m -14.1,0 c 0,-2.4 1.7,-5.7 5.5,-5.7 3.8,0 5.5,3.3 5.5,5.7 0,2.3 -1.7,5.6 -5.5,5.6 -3.8,0 -5.5,-3.3 -5.5,-5.6 z m 33.6,8.3 -4.5,-6 c 1.6,-0.3 4.2,-1.5 4.2,-5.2 0,-1.6 -0.6,-3.1 -1.6,-4 -1,-1 -2.4,-1.4 -4.5,-1.4 h -5.3 v 16.6 h 3.1 v -6.6 l 4.7,6.5 h 3.9 z m -8.6,-8.5 v -5.2 h 2 c 2.3,0 3.1,1.3 3.1,2.6 0,1.8 -1.3,2.7 -4,2.7 H 356 Z m 21.5,3.8 h 5.1 l 1.8,4.7 h 3.3 l -6.2,-16.3 -0.1,-0.3 h -2.6 l -6.3,16.6 h 3.3 z m 2.6,-7.3 1.5,4.4 h -3 z m -224.6,41.8 h -20.4 v -17.9 h -4.7 v 40.5 h 4.7 v -18.3 h 20.4 v 18.3 h 4.7 v -40.5 h -4.7 z m 25.1,-8 c -8.7,0.2 -15.9,7.4 -15.9,16.1 0,8.8 7.1,15.3 15.9,15.3 6.8,0 12.8,-3.6 15,-10 l 0.1,-0.4 H 191 l -0.1,0.2 c -1.1,3.1 -4.6,6.8 -10.5,6.9 -5.7,0 -10.9,-4.8 -11.3,-10.3 h 27.3 v -0.3 c 0.2,-3.6 -0.6,-6.9 -2.3,-9.6 -2,-3.8 -6.8,-7.9 -13.5,-7.9 z m -11.3,13.7 c 1.1,-6.4 6.5,-9.6 11.3,-9.6 4.6,0 10.1,3 11.4,9.6 z m 58,11.7 -6.8,-21 h -3.8 l -6.7,21 -9.2,-24.5 -0.1,-0.2 H 196 l 11.6,29.7 0.1,0.2 h 4.8 l 6.1,-18.7 6.2,18.7 h 4.8 l 11.7,-29.9 h -4.6 z m 17.4,5.2 h 4.4 v -40.5 h -4.4 z M 269,330.2 c -8.7,0.2 -15.9,7.4 -15.9,16.1 0,8.8 7.1,15.3 15.9,15.3 6.8,0 12.8,-3.6 15,-10 l 0.1,-0.4 h -4.7 v 0.2 c -1.1,3.1 -4.6,6.8 -10.5,6.9 -5.7,0 -10.9,-4.8 -11.3,-10.3 H 285 v -0.3 c 0.2,-3.6 -0.6,-6.9 -2.3,-9.6 -2.2,-3.8 -6.9,-7.9 -13.7,-7.9 z m -11.3,13.7 c 1.1,-6.4 6.5,-9.6 11.3,-9.6 4.6,0 10.1,3 11.4,9.6 z m 54.7,-23.5 H 308 V 331 h -12 v -10.6 h -4.4 V 331 h -6.3 v 4.1 h 6.3 v 25.8 H 296 V 335 h 12 v 25.8 h 4.4 V 335 h 7.2 v -4.1 h -7.2 c 0,0 0,-10.5 0,-10.5 z m 236.5,40.4 h 4.4 v -30.6 h -4.4 z m -11.6,-41.2 h -4.4 v 10.6 h -6.3 v 4.1 h 6.3 v 26.6 h 4.4 v -26.6 h 7.2 v -4.1 h -7.2 c 0,0 0,-10.6 0,-10.6 z m 79.6,13.6 c -2.6,-2.6 -5.6,-3.7 -9.7,-3.7 -4.3,0 -7.4,2 -9,4.1 v -3.3 h -4.4 v 30.6 h 4.4 V 344 c -0.1,-3.4 0.9,-6.3 2.7,-8 2.4,-2.3 5.4,-2.5 6.3,-2.5 0.9,0 3.9,0.2 6.3,2.5 1.8,1.7 2.8,4.6 2.8,8 v 16.8 h 4.4 V 344 c 0.1,-4.6 -1.3,-8.4 -3.8,-10.8 z m -68,-6.1 h 4.4 v -7.5 h -4.4 z m -30.4,7.9 c -3.6,-5 -9.2,-5.5 -11.5,-5.5 -10.3,0 -16.5,8.1 -16.5,16 0,9 7.2,16.1 16.5,16.1 2.3,0 7.8,-0.6 11.5,-5.5 v 4.8 h 4.4 v -30.6 h -4.4 z M 507,357.5 c -6.8,0 -12,-5.1 -12,-11.9 0,-7.9 6,-12.1 12,-12.1 6.5,0 11.7,5.4 11.7,12 0,6.8 -5.1,12 -11.7,12 z m 67,-28 c -7.7,0 -15.9,6.2 -15.9,16.3 0,8.6 7.3,15.8 15.9,15.8 8.7,0 16.1,-7.4 16.1,-16.1 -0.1,-8.7 -7.4,-16 -16.1,-16 z m 0.1,28 c -6.4,0 -11.6,-5.3 -11.6,-11.8 0,-7.5 6,-12.1 11.6,-12.1 4.7,0 11.6,3.7 11.6,11.8 -0.1,7.5 -6,12.1 -11.6,12.1 z m -201.5,-28 c -7.7,0 -15.9,6.2 -15.9,16.3 0,8.6 7.3,15.8 15.9,15.8 8.7,0 16.1,-7.4 16.1,-16.1 0,-8.7 -7.4,-16 -16.1,-16 z m 0.1,28 c -6.4,0 -11.6,-5.3 -11.6,-11.8 0,-7.5 6,-12.1 11.6,-12.1 4.7,0 11.6,3.7 11.6,11.8 -0.1,7.5 -5.9,12.1 -11.6,12.1 z m -39.9,3.3 h 4.7 v -18.6 h 15.9 V 338 H 337.5 V 323.9 H 354 v -4.3 h -21.1 z m 150.1,-25.9 c -3.9,-5 -9.8,-5.4 -11.5,-5.4 -10.3,0 -16.5,8.1 -16.5,16 0,9 7.2,16.1 16.5,16.1 3.6,0 8.5,-1.5 11.5,-5.5 v 4.8 h 4.4 v -41.2 h -4.4 z m -11.4,22.6 c -6.8,0 -12,-5.1 -12,-11.9 0,-7.9 6,-12.1 12,-12.1 6.5,0 11.7,5.4 11.7,12 0,6.8 -5.2,12 -11.7,12 z m -56.8,-11.1 c 0,5.3 -1.4,7.2 -3.1,8.8 -1.6,1.6 -3.6,2.3 -6.1,2.3 -2.8,0 -5.1,-0.9 -6.8,-2.7 -1.4,-1.8 -2.1,-4.3 -2.1,-7.7 v -16.8 h -4.4 v 16.9 c 0,4.3 0.9,7.7 2.7,9.9 1.4,1.7 4.6,4.6 10.6,4.6 5.6,0 8.3,-3 9.4,-4.7 v 4 h 4.2 v -30.6 h -4.4 z M 438,329.5 c -4.3,0 -7.4,2 -9,4.1 v -3.3 h -4.4 v 30.6 H 429 V 344 c -0.1,-3.4 0.9,-6.3 2.7,-8 2.4,-2.3 5.4,-2.5 6.3,-2.5 0.9,0 3.9,0.2 6.3,2.5 1.8,1.7 2.8,4.6 2.8,8 v 16.8 h 4.4 V 344 c 0,-4.7 -1.3,-8.3 -3.8,-10.8 -2.6,-2.6 -5.6,-3.7 -9.7,-3.7 z"
     id="path4" /><path
     class="st1"
     d="m 20.8,328.9 h 3.9 v -71.1 h -3.9 z m 53.3,-40.2 h -5.8 v -31 h -3.8 v 31 H 34.1 v -31 h -3.9 v 34.8 h 34.2 v 5.8 h -34 v 30.5 h 3.9 v -26.7 h 30.2 v 17.1 h 3.9 v -17 h 5.8 v 17.1 h 3.9 v -61.5 h -3.9 v 30.9 z m 0,9.7 h -5.8 v -5.8 h 5.8 z m 199.9,0.2 v -4.3 h -3 v 4.3 h -4.3 v 3.1 h 4.3 v 4.3 h 3.1 v -4.3 h 4.3 v -3.1 z"
     id="path6" /></g>
</svg>
