<?xml version="1.0" encoding="UTF-8" standalone="no"?>
<svg
   height="512pt"
   viewBox="0 -32 512 512"
   width="512pt"
   version="1.1"
   id="svg10"
   sodipodi:docname="tutorial.svg"
   inkscape:version="1.1.1 (3bf5ae0d25, 2021-09-20)"
   xmlns:inkscape="http://www.inkscape.org/namespaces/inkscape"
   xmlns:sodipodi="http://sodipodi.sourceforge.net/DTD/sodipodi-0.dtd"
   xmlns="http://www.w3.org/2000/svg"
   xmlns:svg="http://www.w3.org/2000/svg">
  <defs
     id="defs14" />
  <sodipodi:namedview
     id="namedview12"
     pagecolor="#ffffff"
     bordercolor="#666666"
     borderopacity="1.0"
     inkscape:pageshadow="2"
     inkscape:pageopacity="0.0"
     inkscape:pagecheckerboard="0"
     inkscape:document-units="pt"
     showgrid="false"
     inkscape:zoom="1.0532227"
     inkscape:cx="340.8586"
     inkscape:cy="340.8586"
     inkscape:window-width="1866"
     inkscape:window-height="989"
     inkscape:window-x="1974"
     inkscape:window-y="27"
     inkscape:window-maximized="1"
     inkscape:current-layer="svg10" />
  <path
     d="m464.867188 0h-224.933594c-25.988282 0-47.132813 21.144531-47.132813 47.132812v144.292969l-41.765625-20.769531c-1.410156-.703125-2.84375-1.367188-4.289062-1.996094 12.261718-12.800781 19.820312-30.144531 19.820312-49.226562 0-39.277344-31.953125-71.234375-71.230468-71.234375-39.28125 0-71.234376 31.957031-71.234376 71.234375 0 21.34375 9.449219 40.515625 24.371094 53.582031-27.480468 15.460937-48.472656 45.621094-48.472656 82.984375v48.199219c0 20.75 13.472656 38.410156 32.132812 44.6875v83.847656c0 8.28125 6.714844 15 15 15h96.398438c8.285156 0 15-6.71875 15-15v-168.535156l48.023438 24.007812c18.378906 9.1875 43.308593 3.710938 54.582031-17.207031h53.78125l-56.949219 156.605469c-2.832031 7.785156 1.1875 16.394531 8.972656 19.222656 8.898438 3.238281 16.8125-2.34375 19.222656-8.96875l60.675782-166.859375h10.515625l61.296875 166.90625c2.328125 6.332031 10.183594 12.238281 19.253906 8.90625 7.773438-2.855469 11.765625-11.472656 8.90625-19.25l-57.5-156.5625h75.554688c25.484374 0 47.132812-20.558594 47.132812-47.132812v-176.734376c0-26.578124-21.648438-47.132812-47.132812-47.132812zm-410.765626 119.433594c0-22.738282 18.496094-41.234375 41.230469-41.234375 22.738281 0 41.234375 18.496093 41.234375 41.234375 0 22.734375-18.496094 41.230468-41.234375 41.230468-22.734375 0-41.230469-18.496093-41.230469-41.230468zm181.398438 135.527344c-.039062.109374-.078125.222656-.113281.335937-1.023438 2.855469-3.335938 5.261719-6.167969 6.425781-2.996094 1.21875-6.367188 1.089844-9.246094-.347656-28.523437-14.269531-69.738281-34.859375-69.738281-34.859375-9.953125-4.976563-21.703125 2.273437-21.703125 13.417969v177.800781h-66.398438v-81.402344c0-8.28125-6.71875-15-15-15-9.449218 0-17.132812-7.683593-17.132812-17.132812v-48.199219c0-36.652344 29.84375-65.332031 65.332031-65.332031h13.253907c10.054687 0 20.097656 2.359375 29.070312 6.839843 0 0 74.402344 37 93.351562 46.4375 4.058594 2.015626 5.988282 6.75 4.492188 11.015626zm246.5-31.09375c0 4.582031-1.777344 8.882812-5.011719 12.117187-3.183593 3.1875-7.601562 5.015625-12.121093 5.015625h-200.46875c-.027344-.082031-.046876-.164062-.074219-.242188l37.226562-74.449218c3.703125-7.410156.703125-16.417969-6.707031-20.125-7.40625-3.703125-16.417969-.703125-20.125 6.707031l-31.75 63.496094c-5.917969-2.949219-12.796875-6.375-20.167969-10.039063v-159.214844c0-9.445312 7.683594-17.132812 17.132813-17.132812h224.933594c4.519531 0 8.9375 1.828125 12.125 5.023438 3.230468 3.226562 5.007812 7.527343 5.007812 12.109374zm0 0"
     id="path2"
     style="stroke-width:1;stroke-miterlimit:4;stroke-dasharray:none;fill:#095798;fill-opacity:1" />
  <path
     d="m432.734375 64.265625h-160.667969c-8.285156 0-15 6.714844-15 15s6.714844 15 15 15h160.667969c8.28125 0 15-6.714844 15-15s-6.714844-15-15-15zm0 0"
     id="path4"
     style="fill:#095798;fill-opacity:1" />
  <path
     d="m432.734375 120.5h-80.335937c-8.28125 0-15 6.714844-15 15s6.71875 15 15 15h80.335937c8.28125 0 15-6.714844 15-15s-6.714844-15-15-15zm0 0"
     id="path6"
     style="fill:#095798;fill-opacity:1" />
  <path
     d="m432.734375 176.734375h-80.335937c-8.28125 0-15 6.714844-15 15 0 8.28125 6.71875 15 15 15h80.335937c8.28125 0 15-6.71875 15-15 0-8.285156-6.714844-15-15-15zm0 0"
     id="path8"
     style="fill:#095798;fill-opacity:1" />
</svg>
