<?xml version="1.0" encoding="UTF-8" standalone="no"?>
<svg
   version="1.1"
   id="Capa_1"
   x="0px"
   y="0px"
   viewBox="0 0 512 512"
   style="enable-background:new 0 0 512 512;"
   xml:space="preserve"
   sodipodi:docname="circle.svg"
   inkscape:version="1.1.1 (3bf5ae0d25, 2021-09-20)"
   xmlns:inkscape="http://www.inkscape.org/namespaces/inkscape"
   xmlns:sodipodi="http://sodipodi.sourceforge.net/DTD/sodipodi-0.dtd"
   xmlns="http://www.w3.org/2000/svg"
   xmlns:svg="http://www.w3.org/2000/svg"
   xmlns:rdf="http://www.w3.org/1999/02/22-rdf-syntax-ns#"
   xmlns:cc="http://creativecommons.org/ns#"
   xmlns:dc="http://purl.org/dc/elements/1.1/"><metadata
   id="metadata49"><rdf:RDF><cc:Work
       rdf:about=""><dc:format>image/svg+xml</dc:format><dc:type
         rdf:resource="http://purl.org/dc/dcmitype/StillImage" /></cc:Work></rdf:RDF></metadata><defs
   id="defs47" /><sodipodi:namedview
   pagecolor="#ffffff"
   bordercolor="#666666"
   borderopacity="1"
   objecttolerance="10"
   gridtolerance="10"
   guidetolerance="10"
   inkscape:pageopacity="0"
   inkscape:pageshadow="2"
   inkscape:window-width="1866"
   inkscape:window-height="989"
   id="namedview45"
   showgrid="false"
   inkscape:zoom="1.0150849"
   inkscape:cx="227.56717"
   inkscape:cy="257.12135"
   inkscape:window-x="1974"
   inkscape:window-y="27"
   inkscape:window-maximized="1"
   inkscape:current-layer="Capa_1"
   inkscape:document-rotation="0"
   inkscape:pagecheckerboard="0" />


<g
   id="g14">
</g>
<g
   id="g16">
</g>
<g
   id="g18">
</g>
<g
   id="g20">
</g>
<g
   id="g22">
</g>
<g
   id="g24">
</g>
<g
   id="g26">
</g>
<g
   id="g28">
</g>
<g
   id="g30">
</g>
<g
   id="g32">
</g>
<g
   id="g34">
</g>
<g
   id="g36">
</g>
<g
   id="g38">
</g>
<g
   id="g40">
</g>
<g
   id="g42">
</g>
<path
   id="path850"
   style="fill:#095798;stroke-width:1.18022;fill-opacity:1"
   d="M 258.26758 0.021484375 C 246.33131 -0.096888201 234.44143 0.27289463 226.97656 1.1757812 C 110.72425 15.236662 19.651313 103.81987 2.0019531 219.99805 C -0.6723339 237.60173 -0.66708886 273.23275 2.0117188 290.78516 C 11.988713 356.15765 44.338309 413.48534 94.248047 454.23828 C 131.47838 484.63807 181.91966 505.6831 229.42969 510.64062 C 334.18256 521.57125 436.40146 465.80699 484.30078 371.59961 C 503.12886 334.56897 511.9571 297.71821 512 255.98047 C 512.07114 186.71672 486.3965 124.73168 437.19727 75.384766 C 414.96725 53.088016 396.10036 39.565501 368.0957 25.857422 C 342.22216 13.192519 317.5857 5.6193353 289.83789 1.8007812 C 282.18777 0.74799814 270.20384 0.13985695 258.26758 0.021484375 z M 256 75 A 181 181 0 0 1 437 256 A 181 181 0 0 1 256 437 A 181 181 0 0 1 75 256 A 181 181 0 0 1 256 75 z " /></svg>
