<?xml version="1.0" encoding="UTF-8" standalone="no"?>
<svg
   version="1.1"
   id="Capa_1"
   x="0px"
   y="0px"
   viewBox="0 0 512 512"
   style="enable-background:new 0 0 512 512;"
   xml:space="preserve"
   sodipodi:docname="tick.svg"
   inkscape:version="1.1.1 (3bf5ae0d25, 2021-09-20)"
   xmlns:inkscape="http://www.inkscape.org/namespaces/inkscape"
   xmlns:sodipodi="http://sodipodi.sourceforge.net/DTD/sodipodi-0.dtd"
   xmlns="http://www.w3.org/2000/svg"
   xmlns:svg="http://www.w3.org/2000/svg"
   xmlns:rdf="http://www.w3.org/1999/02/22-rdf-syntax-ns#"
   xmlns:cc="http://creativecommons.org/ns#"
   xmlns:dc="http://purl.org/dc/elements/1.1/"><metadata
   id="metadata49"><rdf:RDF><cc:Work
       rdf:about=""><dc:format>image/svg+xml</dc:format><dc:type
         rdf:resource="http://purl.org/dc/dcmitype/StillImage" /></cc:Work></rdf:RDF></metadata><defs
   id="defs47" /><sodipodi:namedview
   pagecolor="#ffffff"
   bordercolor="#666666"
   borderopacity="1"
   objecttolerance="10"
   gridtolerance="10"
   guidetolerance="10"
   inkscape:pageopacity="0"
   inkscape:pageshadow="2"
   inkscape:window-width="1866"
   inkscape:window-height="989"
   id="namedview45"
   showgrid="false"
   inkscape:zoom="1.0150849"
   inkscape:cx="277.80927"
   inkscape:cy="293.5715"
   inkscape:window-x="1974"
   inkscape:window-y="27"
   inkscape:window-maximized="1"
   inkscape:current-layer="Capa_1"
   inkscape:document-rotation="0"
   inkscape:pagecheckerboard="0" />


<g
   id="g14">
</g>
<g
   id="g16">
</g>
<g
   id="g18">
</g>
<g
   id="g20">
</g>
<g
   id="g22">
</g>
<g
   id="g24">
</g>
<g
   id="g26">
</g>
<g
   id="g28">
</g>
<g
   id="g30">
</g>
<g
   id="g32">
</g>
<g
   id="g34">
</g>
<g
   id="g36">
</g>
<g
   id="g38">
</g>
<g
   id="g40">
</g>
<g
   id="g42">
</g>
<path
   style="fill:#095798;stroke-width:1.18022;fill-opacity:1"
   d="M 229.42924,510.64046 C 181.91921,505.68294 131.47899,484.63711 94.248656,454.23732 44.338918,413.48438 11.988959,356.15695 2.0119649,290.78446 -0.66684271,273.23205 -0.67142442,237.60078 2.0028626,219.9971 19.652222,103.81892 110.72487,15.237358 226.97718,1.176477 c 14.92974,-1.80577324 47.5598,-1.48217943 62.86005,0.6233868 27.74781,3.818554 52.38519,11.3922052 78.25873,24.0571082 28.00466,13.708079 46.87153,27.230568 69.10155,49.527318 49.19923,49.34691 74.87348,111.33263 74.80234,180.59638 -0.0429,41.73774 -8.87145,78.5887 -27.69953,115.61934 C 436.401,465.80739 334.18211,521.57108 229.42924,510.64046 Z m -4.19207,-148.34421 c 5.643,-2.59674 185.95027,-173.04519 188.29415,-177.99863 5.11151,-10.80238 3.47524,-21.5506 -4.53464,-29.78708 -4.4775,-4.60415 -6.68726,-5.90165 -12.06761,-7.08574 -5.55997,-1.22361 -7.5839,-1.15923 -12.98716,0.4132 -6.07977,1.76928 -10.45631,5.7085 -87.27535,78.55422 -44.48103,42.18033 -81.22552,76.57871 -81.65442,76.44082 -0.42889,-0.13788 -17.96157,-17.95311 -38.96148,-39.58941 -20.99992,-21.63628 -40.0412,-40.27891 -42.31395,-41.42804 -10.87026,-5.49619 -22.44512,-3.54873 -30.44342,5.12207 -7.209503,7.81568 -8.892585,15.80335 -5.454488,25.88624 1.615166,4.73679 8.953848,12.76006 51.603858,56.41769 35.16916,36.00004 51.1176,51.52956 54.49316,53.06174 6.10619,2.77161 15.26954,2.76858 21.30135,-0.007 z"
   id="path850" /></svg>
