<svg id="Layer_3" height="512" viewBox="0 0 32 32" width="512" xmlns="http://www.w3.org/2000/svg" data-name="Layer 3"><path d="m24.96 9.149a9 9 0 0 0 -17.917 0 7.5 7.5 0 0 0 1.457 14.851 1 1 0 0 0 0-2 5.5 5.5 0 0 1 -.423-10.978 1.022 1.022 0 0 0 .923-1.022 7 7 0 0 1 14-.075v.1a1 1 0 0 0 .924 1 5.5 5.5 0 0 1 -.424 10.975 1 1 0 0 0 0 2 7.5 7.5 0 0 0 1.46-14.851z"/><path d="m20.707 18.293a1 1 0 0 0 -1.414 0l-3.293 3.293-3.293-3.293a1 1 0 0 0 -1.414 1.414l3.293 3.293-3.293 3.293a1 1 0 1 0 1.414 1.414l3.293-3.293 3.293 3.293a1 1 0 0 0 1.414-1.414l-3.293-3.293 3.293-3.293a1 1 0 0 0 0-1.414z"/></svg>