<svg id="Layer_2" enable-background="new 0 0 32 32" height="512" viewBox="0 0 32 32" width="512" xmlns="http://www.w3.org/2000/svg"><g><path d="m24.49414 10.79199c-.21826-1.9043-1.06738-3.67432-2.44971-5.06641-1.62402-1.6123-3.7705-2.50048-6.04443-2.50048-4.38184 0-8.00488 3.31396-8.49365 7.56689-3.63037.25391-6.50635 3.28906-6.50635 6.98291 0 3.43262 2.55029 6.40283 5.93213 6.90869.54492.08252 1.05469-.29443 1.13672-.84082.08203-.5459-.29443-1.05518-.84082-1.13672-2.41016-.36084-4.22803-2.48095-4.22803-4.93115 0-2.75684 2.24316-5 5-5h.4502c.55225 0 1-.44775 1-1 0-3.61133 2.93848-6.5498 6.5498-6.5498 1.74219 0 3.38867.68164 4.63037 1.91455 1.23779 1.24658 1.91943 2.89307 1.91943 4.63525 0 .55225.44775 1 1 1h.4502c2.75684 0 5 2.24316 5 5 0 2.4502-1.81787 4.57031-4.22803 4.93115-.54639.08154-.92285.59082-.84082 1.13672.07422.49609.50049.85205.9873.85205.04932 0 .09912-.00342.14941-.01123 3.38185-.50586 5.93214-3.47607 5.93214-6.90869 0-3.69385-2.87598-6.72851-6.50586-6.98291z"/><path d="m16 13.81104c-2.34326 0-4.25 1.90674-4.25 4.25v1h-1.31104c-.55225 0-1 .44775-1 1v7.71387c0 .55225.44775 1 1 1h11.12207c.55225 0 1-.44775 1-1v-7.71387c0-.55225-.44775-1-1-1h-1.31103v-1c0-2.34327-1.90674-4.25-4.25-4.25zm-2.25 4.25c0-1.24072 1.00928-2.25 2.25-2.25s2.25 1.00928 2.25 2.25v1h-4.5zm6.81104 8.71386h-9.12207v-5.71387h1.31103 6.5 1.31104z"/></g></svg>