<?xml version="1.0" encoding="UTF-8" standalone="no"?>
<svg
   clip-rule="evenodd"
   fill-rule="evenodd"
   height="512"
   stroke-linejoin="round"
   stroke-miterlimit="2"
   viewBox="0 0 512 512"
   width="512"
   version="1.1"
   id="svg6"
   sodipodi:docname="help.svg"
   inkscape:version="1.1.1 (3bf5ae0d25, 2021-09-20)"
   xmlns:inkscape="http://www.inkscape.org/namespaces/inkscape"
   xmlns:sodipodi="http://sodipodi.sourceforge.net/DTD/sodipodi-0.dtd"
   xmlns="http://www.w3.org/2000/svg"
   xmlns:svg="http://www.w3.org/2000/svg">
  <defs
     id="defs10" />
  <sodipodi:namedview
     id="namedview8"
     pagecolor="#ffffff"
     bordercolor="#666666"
     borderopacity="1.0"
     inkscape:pageshadow="2"
     inkscape:pageopacity="0.0"
     inkscape:pagecheckerboard="0"
     showgrid="false"
     inkscape:zoom="1.4042969"
     inkscape:cx="255.64395"
     inkscape:cy="255.64395"
     inkscape:window-width="1866"
     inkscape:window-height="989"
     inkscape:window-x="1974"
     inkscape:window-y="27"
     inkscape:window-maximized="1"
     inkscape:current-layer="svg6" />
  <g
     id="g4"
     style="fill:#095798;fill-opacity:1">
    <path
       d="m256 0c-141.29 0-256 114.71-256 256s114.71 256 256 256 256-114.71 256-256-114.71-256-256-256zm-1.505 420.184h.003c20.004 0 36.221-16.217 36.221-36.221v-.002c0-20.005-16.217-36.222-36.221-36.222h-.003c-20.004 0-36.221 16.217-36.221 36.222v.002c0 20.004 16.217 36.221 36.221 36.221zm-64.721-214.936c-.755-.01-3.22-.174-3.697-.231-10.192-1.211-19.324-6.878-24.935-15.472-5.612-8.595-7.126-19.235-4.164-28.958 5.549-18.586 14.916-33.492 27.829-44.889 17.681-15.605 40.893-23.882 69.956-23.882 30.63 0 54.887 8.845 73.123 25.514 19.159 17.513 28.611 38.75 28.611 63.597 0 14.543-3.448 27.939-10.265 40.209-6.022 10.84-17.56 24.233-35.085 39.751-9.037 8.01-15.071 13.785-17.843 17.585-1.946 2.665-3.341 5.748-4.278 9.206-.681 2.515-1.116 5.957-1.461 10.305-.011.136-.023.271-.037.407-1.607 15.724-13.856 28.005-29.159 29.98-.682.088-4.362.336-4.362.336-9.286.001-18.162-3.826-24.537-10.578s-9.685-15.833-9.169-24.745c.047-1.242.098-2.253.15-2.929.825-10.643 2.924-20.105 6.104-28.265 3.242-8.547 8.384-17.222 15.651-25.971 4.627-5.528 12.896-13.649 24.915-24.254 9.036-7.973 15.175-14.076 17.881-18.811 1.759-3.079 2.606-6.448 2.606-10.092 0-7.58-3.187-14.138-9.107-19.877-6.3-6.108-14.062-9.057-23.205-9.057-8.689 0-16.021 2.508-21.839 7.948-4.585 4.287-7.721 10.503-10.031 18.432-4.467 14.972-18.321 24.952-33.652 24.741z"
       id="path2"
       style="fill:#095798;fill-opacity:1" />
  </g>
</svg>
